# xmcd
#
# Track frame offsets: 
#        150
#        31393
#        62357
#        71550
#        96535
#
# Disc length: 1665 seconds
#
# Revision: 0
# Processed by: cddbd v1.5.2PL0 Copyright (c) Steve Scherf et al.
# Submitted via: ExactAudioCopy v0.95a5
#
DISCID=3f067f05
DTITLE=Wojtek Klich - Papieskie
DYEAR=2012
DGENRE=Blues
TTITLE0=Plon nie za blisko nieba
TTITLE1=Zamkniete w szeroko otwarte
TTITLE2=Bo to przyjaciel
TTITLE3=Uwielbiam cie siao wonne
TTITLE4=Piosenka eucharystyczna
EXTD=
EXTT0=
EXTT1=
EXTT2=
EXTT3=
EXTT4=
PLAYORDER=
